<svg width="20" height="19" viewBox="0 0 20 19" fill="none" xmlns="http://www.w3.org/2000/svg">
<g opacity="1">
<mask id="mask0_2786_25" style="mask-type:alpha" maskUnits="userSpaceOnUse" x="0" y="0" width="20" height="19">
<path d="M17.3537 3.75773H2.64633C1.18715 3.75773 0 4.97095 0 6.46227V15.8566C0 17.3479 1.18715 18.5612 2.64633 18.5612H17.3537C18.8129 18.5612 20 17.3479 20 15.8566V6.46227C20 4.97099 18.8129 3.75773 17.3537 3.75773ZM18.3842 15.8566C18.3842 16.4373 17.9219 16.9097 17.3537 16.9097H2.64633C2.07809 16.9097 1.61582 16.4373 1.61582 15.8566V6.46227C1.61582 5.88153 2.07813 5.40909 2.64633 5.40909H17.3537C17.9219 5.40909 18.3842 5.88157 18.3842 6.46227V15.8566ZM11.8384 0H8.1616C6.70242 0 5.51527 1.21327 5.51527 2.70455V17.7354C5.51527 18.1915 5.87699 18.5611 6.32316 18.5611C6.76934 18.5611 7.13105 18.1915 7.13105 17.7354V2.70455C7.13105 2.1238 7.59336 1.65137 8.16156 1.65137H11.8384C12.4066 1.65137 12.8689 2.12384 12.8689 2.70455V17.7354C12.8689 18.1915 13.2306 18.5611 13.6768 18.5611C14.123 18.5611 14.4847 18.1915 14.4847 17.7354V2.70455C14.4847 1.21327 13.2976 0 11.8384 0Z" fill="white"/>
</mask>
<g mask="url(#mask0_2786_25)">
<mask id="mask1_2786_25" style="mask-type:alpha" maskUnits="userSpaceOnUse" x="0" y="-1" width="20" height="21">
<path d="M20 -0.843674H0V19.4049H20V-0.843674Z" fill="white"/>
</mask>
<g mask="url(#mask1_2786_25)">
<path d="M20 -0.843674H0V19.4049H20V-0.843674Z" fill="#1A6EB4"/>
</g>
</g>
</g>
</svg>
