<svg width="20" height="21" viewBox="0 0 20 21" fill="none" xmlns="http://www.w3.org/2000/svg">
<g opacity="1">
<mask id="mask0_2786_36" style="mask-type:alpha" maskUnits="userSpaceOnUse" x="1" y="0" width="18" height="20">
<path d="M15.8925 2.43941C14.3186 0.866328 12.2259 0 9.99998 0C7.7741 0 5.68138 0.866328 4.10743 2.43941C2.53343 4.0125 1.66666 6.10402 1.66666 8.32871C1.66666 9.79965 2.09549 11.3312 2.94116 12.8807C3.59875 14.0857 4.51038 15.3066 5.6507 16.5096C7.57247 18.537 9.47168 19.8111 9.55161 19.8643C9.68734 19.9548 9.84364 20 9.99998 20C10.1563 20 10.3126 19.9548 10.4484 19.8643C10.5283 19.8111 12.4275 18.537 14.3493 16.5096C15.4896 15.3066 16.4012 14.0857 17.0588 12.8807C17.9045 11.3312 18.3333 9.79965 18.3333 8.32871C18.3333 6.10402 17.4665 4.0125 15.8925 2.43941ZM9.99998 1.61578C13.7035 1.61578 16.7166 4.62719 16.7166 8.32871C16.7166 12.8808 11.5696 17.0378 10 18.1993C8.42981 17.0373 3.28338 12.8804 3.28338 8.32871C3.28338 4.62719 6.29641 1.61578 9.99998 1.61578ZM9.99998 5.01387C8.17119 5.01387 6.6833 6.5009 6.6833 8.32871C6.6833 10.1565 8.17115 11.6436 9.99998 11.6436C11.8288 11.6436 13.3167 10.1565 13.3167 8.32871C13.3167 6.5009 11.8288 5.01387 9.99998 5.01387ZM9.99998 6.62969C10.9374 6.62969 11.6999 7.39188 11.6999 8.32871C11.6999 9.26555 10.9374 10.0277 9.99998 10.0277C9.06262 10.0277 8.30002 9.26555 8.30002 8.32871C8.30002 7.39188 9.06262 6.62969 9.99998 6.62969Z" fill="white"/>
</mask>
<g mask="url(#mask0_2786_36)">
<mask id="mask1_2786_36" style="mask-type:alpha" maskUnits="userSpaceOnUse" x="0" y="0" width="20" height="20">
<path d="M20 0H0V20H20V0Z" fill="white"/>
</mask>
<g mask="url(#mask1_2786_36)">
<path d="M20 0H0V20H20V0Z" fill="#1A6EB4"/>
</g>
</g>
</g>
</svg>
