<svg width="20" height="20" viewBox="0 0 20 20" fill="none" xmlns="http://www.w3.org/2000/svg">
<g opacity="1">
<path d="M18.228 2.76824V1.99059C18.228 0.892969 17.3108 0 16.1833 0H10.4964C9.95015 0 9.4367 0.20707 9.05048 0.583086L1.00774 8.41273C0.621486 8.78871 0.408779 9.28859 0.408779 9.82031C0.408779 10.352 0.621486 10.8519 1.00774 11.2279L1.82498 12.0235C1.79035 12.1697 1.77201 12.3207 1.77201 12.4745C1.77201 13.0062 1.98472 13.5061 2.37097 13.882L8.05773 19.418C8.45634 19.806 8.97998 20 9.50359 20C10.0272 20 10.5508 19.806 10.9494 19.4179L18.9923 11.5882C19.3785 11.2122 19.5912 10.7123 19.5912 10.1806V4.64469C19.5912 3.77969 19.0213 3.04215 18.228 2.76824ZM1.97164 10.2895C1.84292 10.1642 1.77197 9.99754 1.77197 9.82027C1.77197 9.64301 1.84292 9.47645 1.97164 9.35106L10.0144 1.52141C10.1432 1.39613 10.3143 1.32707 10.4964 1.32707H16.1832C16.559 1.32707 16.8648 1.62473 16.8648 1.99059V2.6541H11.8596C11.3133 2.6541 10.7999 2.86117 10.4137 3.23719L2.5706 10.8725L1.97164 10.2895ZM18.0284 10.6498L9.98554 18.4795C9.7197 18.7383 9.28735 18.7382 9.02163 18.4795L3.33484 12.9436C3.20611 12.8183 3.13517 12.6516 3.13517 12.4744C3.13517 12.2971 3.20611 12.1305 3.33484 12.0052L11.3776 4.17547C11.5064 4.0502 11.6775 3.98113 11.8596 3.98113H17.5464C17.9222 3.98113 18.228 4.27879 18.228 4.64465V10.1806C18.228 10.3579 18.1571 10.5245 18.0284 10.6498Z" fill="#1A6EB4"/>
<path d="M14.8201 5.30823C13.6926 5.30823 12.7753 6.2012 12.7753 7.29881C12.7753 8.39643 13.6926 9.2894 14.8201 9.2894C15.9476 9.2894 16.8648 8.39643 16.8648 7.29881C16.8648 6.2012 15.9476 5.30823 14.8201 5.30823ZM14.8201 7.96237C14.4443 7.96237 14.1385 7.66471 14.1385 7.29885C14.1385 6.93299 14.4443 6.63534 14.8201 6.63534C15.1959 6.63534 15.5016 6.93299 15.5016 7.29885C15.5016 7.66471 15.1959 7.96237 14.8201 7.96237Z" fill="#1A6EB4"/>
</g>
</svg>
