<svg width="20" height="21" viewBox="0 0 20 21" fill="none" xmlns="http://www.w3.org/2000/svg">
<g opacity="0.8">
<path d="M17.6706 8.82985L13.2237 8.82985C13.1265 8.83005 13.0309 8.80548 12.9459 8.75846C12.8609 8.71145 12.7892 8.64354 12.7378 8.56115L8.30991 1.47584C8.25859 1.39372 8.18725 1.32599 8.10258 1.27899C8.01792 1.23199 7.9227 1.20727 7.82587 1.20714L6.96831 1.20714C6.88139 1.20713 6.79561 1.22695 6.7175 1.26508C6.63938 1.30321 6.57099 1.35865 6.51753 1.42718C6.46406 1.49571 6.42692 1.57554 6.40894 1.66058C6.39096 1.74562 6.39261 1.83365 6.41376 1.91796L7.96498 8.11903C7.98614 8.20334 7.98778 8.29137 7.9698 8.37641C7.95182 8.46145 7.91469 8.54128 7.86122 8.60981C7.80775 8.67834 7.73936 8.73378 7.66125 8.77191C7.58313 8.81004 7.49735 8.82986 7.41043 8.82985L4.59003 8.82985C4.50862 8.82977 4.42817 8.8123 4.35406 8.77861C4.27995 8.74492 4.21389 8.6958 4.1603 8.63452L2.35943 6.57639C1.97639 6.13999 1.26271 6.48396 1.36657 7.05471L1.9297 10.1572C1.94192 10.2246 1.94192 10.2936 1.9297 10.3611L1.36657 13.4635C1.26176 14.0343 1.97639 14.3782 2.35848 13.9418L4.15934 11.8837C4.21304 11.8223 4.27926 11.7731 4.35354 11.7394C4.42783 11.7057 4.50846 11.6883 4.59003 11.6884L7.41043 11.6884C7.49725 11.6884 7.58292 11.7082 7.66095 11.7463C7.73897 11.7844 7.8073 11.8397 7.86075 11.9081C7.9142 11.9765 7.95136 12.0562 7.96942 12.1412C7.98748 12.2261 7.98597 12.314 7.96498 12.3982L6.41376 18.6012C6.39278 18.6855 6.39126 18.7734 6.40932 18.8583C6.42738 18.9432 6.46454 19.0229 6.51799 19.0913C6.57144 19.1598 6.63977 19.2151 6.7178 19.2532C6.79582 19.2912 6.88149 19.3111 6.96831 19.3111L7.82587 19.3111C7.9227 19.311 8.01792 19.2862 8.10258 19.2392C8.18725 19.1922 8.25859 19.1245 8.30991 19.0424L12.7387 11.9571C12.7901 11.8748 12.8616 11.807 12.9465 11.76C13.0313 11.713 13.1267 11.6883 13.2237 11.6884L17.6706 11.6884C18.0497 11.6884 18.4132 11.5378 18.6812 11.2698C18.9493 11.0017 19.0999 10.6382 19.0999 10.2591C19.0999 9.88005 18.9493 9.51651 18.6812 9.24847C18.4132 8.98044 18.0497 8.82985 17.6706 8.82985V8.82985Z" stroke="#7E8B97" stroke-width="1.5" stroke-linecap="round" stroke-linejoin="round"/>
</g>
</svg>
