<svg width="64" height="64" viewBox="0 0 64 64" fill="none" xmlns="http://www.w3.org/2000/svg">
<path d="M47.1063 0H16.8937C7.56355 0 0 7.64607 0 17.078V46.922C0 56.3539 7.56355 64 16.8937 64H47.1063C56.4364 64 64 56.3539 64 46.922V17.078C64 7.64607 56.4364 0 47.1063 0Z" fill="#FF9B53"/>
<path d="M43.4503 21.2959L44.309 28.5757C44.4034 29.3756 44.1295 30.175 43.5661 30.7446L30.859 43.5904C29.844 44.6165 28.1984 44.6165 27.1834 43.5904L19.1999 35.5198C18.1849 34.4938 18.1849 32.8302 19.1999 31.8042L31.916 18.9493C32.4744 18.3849 33.2563 18.1076 34.0411 18.1958L41.1568 18.9958C42.3571 19.1307 43.3073 20.0837 43.4503 21.2959ZM40.6872 21.8686C39.8092 20.981 38.4062 20.9601 37.5536 21.822C36.7011 22.6839 36.7217 24.1021 37.5998 24.9898C38.4778 25.8774 39.8808 25.8983 40.7334 25.0364C41.586 24.1745 41.5653 22.7563 40.6872 21.8686Z" fill="white"/>
</svg>
