<svg width="64" height="64" viewBox="0 0 64 64" fill="none" xmlns="http://www.w3.org/2000/svg">
<path d="M47.1063 0H16.8937C7.56355 0 0 7.64607 0 17.078V46.922C0 56.3539 7.56355 64 16.8937 64H47.1063C56.4364 64 64 56.3539 64 46.922V17.078C64 7.64607 56.4364 0 47.1063 0Z" fill="#36DA76"/>
<path fill-rule="evenodd" clip-rule="evenodd" d="M25.8024 46.4C26.7275 46.4 27.4773 45.642 27.4773 44.7068V32.9397C27.4773 31.9344 27.8574 30.9671 28.5396 30.2357L30.1139 28.5483C30.9081 27.6969 31.287 26.5328 31.148 25.371L30.3131 18.3946C30.2732 18.0609 29.993 17.8099 29.6605 17.8099C29.3359 17.8099 29.0699 18.0706 29.0599 18.3986L28.8437 25.4594H27.2431L26.4843 18.3566C26.4511 18.0456 26.1914 17.8099 25.8819 17.8099C25.5731 17.8099 25.3144 18.0464 25.2833 18.357L24.5605 25.5993H22.9573V18.2811C22.9573 18.0209 22.7486 17.8099 22.4912 17.8099C22.2221 17.8099 21.9923 18.0063 21.9476 18.2746L20.8174 25.0527C20.634 26.1527 20.9203 27.2797 21.6053 28.1543L23.2854 30.2993C23.8308 30.9956 24.1276 31.8577 24.1276 32.7458V44.7068C24.1276 45.642 24.8774 46.4 25.8024 46.4ZM41.4703 46.0192C42.4256 46.0192 43.2 45.2364 43.2 44.2707V18.4743C43.2 17.9914 42.8128 17.6 42.3351 17.6C41.8232 17.6 41.3732 17.943 41.2323 18.4405L37.7391 30.7759C37.4567 31.7733 37.7547 32.8465 38.5095 33.5495C39.2942 34.2804 39.7406 35.3099 39.7406 36.3885V44.2707C39.7406 45.2364 40.515 46.0192 41.4703 46.0192Z" fill="white"/>
</svg>
