<svg width="64" height="64" viewBox="0 0 64 64" fill="none" xmlns="http://www.w3.org/2000/svg">
<path d="M47.1063 0H16.8937C7.56355 0 0 7.64607 0 17.078V46.922C0 56.3539 7.56355 64 16.8937 64H47.1063C56.4364 64 64 56.3539 64 46.922V17.078C64 7.64607 56.4364 0 47.1063 0Z" fill="#5443CB"/>
<path fill-rule="evenodd" clip-rule="evenodd" d="M28.1306 19.2C28.8978 19.2 29.6167 19.579 30.0557 20.2151L36.9648 30.2259L44.2524 30.5722C45.4545 30.6294 46.4 31.6312 46.4 32.8477C46.4 34.048 45.4374 35.0211 44.25 35.0211H36.9648L30.0408 45.3745C29.612 46.0158 28.8963 46.4 28.1306 46.4C27.6177 46.4 27.202 45.9797 27.202 45.4612C27.202 45.3756 27.2135 45.2904 27.2364 45.208L30.0583 35.0211H22.8086L20.9512 38.8296C20.7571 39.2277 20.3561 39.4798 19.9171 39.4798C19.521 39.4798 19.2 39.1552 19.2 38.7549V26.3255C19.2 25.965 19.4851 25.6706 19.8417 25.663C20.2343 25.6547 20.5973 25.8734 20.7767 26.2266L22.8086 30.2259H30.0583L27.2461 20.3891C27.105 19.8953 27.3865 19.3793 27.875 19.2366C27.9581 19.2123 28.0441 19.2 28.1306 19.2Z" fill="white"/>
</svg>
