<svg width="64" height="64" viewBox="0 0 64 64" fill="none" xmlns="http://www.w3.org/2000/svg">
<path d="M47.1063 0H16.8937C7.56355 0 0 7.58946 0 16.9515V47.0485C0 56.4105 7.56355 64 16.8937 64H47.1063C56.4364 64 64 56.4105 64 47.0485V16.9515C64 7.58946 56.4364 0 47.1063 0Z" fill="#F9668D"/>
<path fill-rule="evenodd" clip-rule="evenodd" d="M20.8708 28.6576C20.2983 28.6576 19.8343 28.1742 19.8343 27.5779V22.2C19.8343 20.5432 21.1237 19.2 22.7143 19.2H41.3364C42.9269 19.2 44.2164 20.5432 44.2164 22.2V27.8923C44.2164 28.481 43.7582 28.9583 43.193 28.9583C42.6278 28.9583 42.1696 28.481 42.1696 27.8923V25.456H33.2253V27.7381C33.2253 28.412 32.7009 28.9583 32.0539 28.9583C31.407 28.9583 30.8826 28.412 30.8826 27.7381V25.456H21.9073V27.5779C21.9073 28.1742 21.4432 28.6576 20.8708 28.6576ZM18.6961 43.2C18.6919 43.2 18.6877 43.2 18.6836 43.2C18.0851 43.2 17.6 42.6947 17.6 42.0713V30.9371C17.6 30.3044 18.0887 29.7894 18.6961 29.7821C18.7003 29.7821 18.7044 29.782 18.7086 29.782C19.3071 29.782 19.7922 30.2874 19.7922 30.9107V30.9301H44.1749V30.9278C44.1749 30.2878 44.673 29.7689 45.2874 29.7689C45.9019 29.7689 46.4 30.2878 46.4 30.9278V42.0278C46.4 42.6679 45.9019 43.1867 45.2874 43.1867C44.673 43.1867 44.1749 42.6679 44.1749 42.0278V41.487H19.7922V42.0449C19.7922 42.6776 19.3035 43.1926 18.6961 43.2Z" fill="white"/>
</svg>
