<svg width="64" height="64" viewBox="0 0 64 64" fill="none" xmlns="http://www.w3.org/2000/svg">
<path d="M47.1063 0H16.8937C7.56355 0 0 7.58946 0 16.9515V47.0485C0 56.4105 7.56355 64 16.8937 64H47.1063C56.4364 64 64 56.4105 64 47.0485V16.9515C64 7.58946 56.4364 0 47.1063 0Z" fill="#FDBF00"/>
<path fill-rule="evenodd" clip-rule="evenodd" d="M39.3014 19.2C41.4546 19.2 43.2 20.9514 43.2 23.1118V37.9873C43.2 39.827 41.9344 41.37 40.2292 41.7877L41.5964 44.8H38.6222L37.1628 41.899H27.2466L25.7891 44.8H22.8149L24.1486 41.8605C22.2559 41.5924 20.8 39.9604 20.8 37.9873V23.1118C20.8 20.9514 22.5454 19.2 24.6985 19.2H39.3014ZM26.5686 35.9655C25.4999 35.9655 24.6336 36.8115 24.6336 37.855C24.6336 38.8985 25.4999 39.7444 26.5686 39.7444C27.6373 39.7444 28.5037 38.8985 28.5037 37.855C28.5037 36.8115 27.6373 35.9655 26.5686 35.9655ZM37.3538 35.9655C36.2851 35.9655 35.4188 36.8115 35.4188 37.855C35.4188 38.8985 36.2851 39.7444 37.3538 39.7444C38.4226 39.7444 39.2889 38.8985 39.2889 37.855C39.2889 36.8115 38.4226 35.9655 37.3538 35.9655ZM29.497 23.9302H24.3923C23.6746 23.9302 23.0928 24.514 23.0928 25.2342V28.6439C23.0928 29.3641 23.6746 29.9479 24.3923 29.9479H29.497C30.2147 29.9479 30.7965 29.3641 30.7965 28.6439V25.2342C30.7965 24.514 30.2147 23.9302 29.497 23.9302ZM40.2822 23.9302H35.1775C34.4598 23.9302 33.878 24.514 33.878 25.2342V28.6439C33.878 29.3641 34.4598 29.9479 35.1775 29.9479H40.2822C40.9999 29.9479 41.5817 29.3641 41.5817 28.6439V25.2342C41.5817 24.514 40.9999 23.9302 40.2822 23.9302Z" fill="white"/>
</svg>
