<svg width="137" height="41" viewBox="0 0 137 41" fill="none" xmlns="http://www.w3.org/2000/svg">
<path d="M9.72522 20.2167L128 20.7833" stroke="#CACACA" stroke-linecap="square" stroke-dasharray="2 5"/>
<path d="M5 24.5C7.20914 24.5 9 22.7091 9 20.5C9 18.2909 7.20914 16.5 5 16.5C2.79086 16.5 1 18.2909 1 20.5C1 22.7091 2.79086 24.5 5 24.5Z" fill="white" stroke="#1262AE" stroke-width="2"/>
<circle cx="68.5" cy="20.5" r="20.5" transform="rotate(-90 68.5 20.5)" fill="#ECF2F9"/>
<ellipse cx="68.5" cy="20.5" rx="16.5307" ry="16.5307" transform="rotate(-90 68.5 20.5)" fill="#D6E4F2"/>
<circle cx="68.5" cy="20.5" r="11.6415" transform="rotate(-90 68.5 20.5)" fill="#1262AE"/>
<path fill-rule="evenodd" clip-rule="evenodd" d="M66.3383 15.7411C66.2417 15.4034 66.4953 15.0673 66.8464 15.0673C67.0202 15.0673 67.1828 15.1526 67.2814 15.2956L70.1637 19.4717L73.0861 19.6106C73.56 19.6331 73.9327 20.024 73.9327 20.4984C73.9327 20.9893 73.5348 21.3872 73.0439 21.3872L70.1637 21.3872L67.281 25.6977C67.1828 25.8445 67.0178 25.9327 66.8412 25.9327C66.4915 25.9327 66.238 25.5994 66.3313 25.2624L67.4048 21.3872L64.5088 21.3872L63.7368 22.9703C63.6777 23.0915 63.5547 23.1683 63.4199 23.1683C63.2251 23.1683 63.0673 23.0105 63.0673 22.8157L63.0673 17.9668C63.0673 17.7932 63.206 17.6515 63.3796 17.6478C63.5021 17.6452 63.6153 17.713 63.6708 17.8223L64.5088 19.4717L67.4048 19.4717L66.3383 15.7411Z" fill="white"/>
<path d="M132 24.5C134.209 24.5 136 22.7091 136 20.5C136 18.2909 134.209 16.5 132 16.5C129.791 16.5 128 18.2909 128 20.5C128 22.7091 129.791 24.5 132 24.5Z" fill="white" stroke="#1262AE" stroke-width="2"/>
</svg>
