<svg width="24" height="24" viewBox="0 0 24 24" fill="none" xmlns="http://www.w3.org/2000/svg">
<path d="M18.5449 1.85059C19.0181 1.85059 19.4867 1.94397 19.9238 2.125C20.3609 2.30605 20.7582 2.57174 21.0928 2.90625C21.4273 3.24079 21.6929 3.63812 21.874 4.0752C22.0551 4.51227 22.1484 4.98101 22.1484 5.4541C22.1484 5.9272 22.055 6.39591 21.874 6.83301C21.6929 7.27021 21.4274 7.66831 21.0928 8.00293L9.00879 20.0879C8.60872 20.4879 8.10862 20.773 7.56055 20.9131L2.81641 22.126C2.68616 22.1592 2.54954 22.1576 2.41992 22.1221C2.29032 22.0865 2.17219 22.0179 2.07715 21.9229C1.9822 21.8278 1.9135 21.7096 1.87793 21.5801C1.8424 21.4503 1.84069 21.3129 1.87402 21.1826L3.08789 16.4404C3.22819 15.8927 3.51326 15.393 3.91309 14.9932L15.9971 2.90625C16.3317 2.57171 16.7289 2.30607 17.166 2.125C17.6032 1.94395 18.0718 1.8506 18.5449 1.85059ZM5.00879 16.0889C4.80592 16.2918 4.66022 16.5454 4.58887 16.8242L3.7002 20.2998L7.17676 19.4121C7.45536 19.3408 7.70974 19.1956 7.91309 18.9922L17.9033 9L15 6.09668L5.00879 16.0889ZM18.5449 3.40137C18.0004 3.40145 17.4778 3.61783 17.0928 4.00293L16.0957 4.99902L19 7.90332L19.9971 6.90625C20.3822 6.52111 20.5987 5.99873 20.5986 5.4541C20.5985 4.90955 20.3822 4.38698 19.9971 4.00195C19.612 3.61702 19.0894 3.40132 18.5449 3.40137Z" fill="black" stroke="black" stroke-width="0.3"/>
</svg>
