<svg width="22" height="22" viewBox="0 0 22 22" fill="none" xmlns="http://www.w3.org/2000/svg">
<path d="M11 1.63441C9.14766 1.63441 7.33692 2.18369 5.79675 3.21279C4.25659 4.2419 3.05618 5.70461 2.34732 7.41594C1.63846 9.12728 1.45299 11.0104 1.81436 12.8271C2.17573 14.6439 3.06772 16.3127 4.37752 17.6225C5.68732 18.9323 7.35611 19.8243 9.17286 20.1856C10.9896 20.547 12.8727 20.3615 14.5841 19.6527C16.2954 18.9438 17.7581 17.7434 18.7872 16.2032C19.8163 14.6631 20.3656 12.8523 20.3656 11C20.3656 8.51609 19.3789 6.13392 17.6225 4.37753C15.8661 2.62114 13.4839 1.63441 11 1.63441Z" stroke="#1262AE" stroke-width="1.5" stroke-miterlimit="10"/>
<path d="M8.02003 8.14189C8.02003 8.14189 8.06473 7.21065 9.06143 6.40872C9.65263 5.93246 10.3614 5.79463 11 5.78506C11.5816 5.77761 12.101 5.87392 12.4118 6.02186C12.9439 6.27515 13.98 6.8935 13.98 8.2084C13.98 9.59196 13.0753 10.2204 12.0446 10.9117C11.0138 11.6029 10.7339 12.3532 10.7339 13.1285" stroke="#1262AE" stroke-width="1.5" stroke-miterlimit="10" stroke-linecap="round"/>
<path d="M10.6807 16.9599C11.2685 16.9599 11.745 16.4834 11.745 15.8956C11.745 15.3079 11.2685 14.8314 10.6807 14.8314C10.0929 14.8314 9.61644 15.3079 9.61644 15.8956C9.61644 16.4834 10.0929 16.9599 10.6807 16.9599Z" fill="#1262AE"/>
</svg>
